<svg height="40" viewBox="0 0 512 512" width="512" xmlns="http://www.w3.org/2000/svg"><g id="Filled_outline" data-name="Filled outline"><circle cx="356" cy="124" fill="#d5d5d3" r="28"/><path d="m408 200h-16v-21.194l-30.247-37.806 12.494-10 32 40a8 8 0 0 1 1.753 5z" fill="#d5d5d3"/><path d="m264 96-16 8v8a16 16 0 0 1 -16 16h-48v-80h64v24l5.33 8z" fill="#fdc8a2"/><path d="m253.33 80h-37.33v-16h32v8z" fill="#fdb683"/><path d="m40 352h56v48h-56z" fill="#c7483c"/><circle cx="120" cy="432" fill="#34507b" r="56"/><circle cx="120" cy="432" fill="#d5d5d3" r="24"/><path d="m40 152h96a16 16 0 0 1 16 16v112a0 0 0 0 1 0 0h-128a0 0 0 0 1 0 0v-112a16 16 0 0 1 16-16z" fill="#d65246"/><path d="m48 208h16v48h-16z" fill="#df6257"/><path d="m24 176h128v16h-128z" fill="#c7483c"/><path d="m311.029 408.971 49.942-49.942a24 24 0 0 0 7.029-16.97v-62.059a32 32 0 0 1 32-32v40a40 40 0 0 0 40 40v32h-17.844a32 32 0 0 0 -23.678 10.474l-60.956 67.052a32 32 0 0 1 -23.678 10.474h-289.844a105.442 105.442 0 0 1 86.58-103.742l1.42-.258v-32h136a27.672 27.672 0 0 1 -23.759 27.394 37.552 37.552 0 0 0 -32.241 37.175v1.879a37.553 37.553 0 0 0 37.552 37.552h64.507a24 24 0 0 0 16.97-7.029z" fill="#d65246"/><path d="m104.285 387.575-6.138-14.775a81.91 81.91 0 0 1 16.727-4.927l2.861 15.742a65.794 65.794 0 0 0 -13.45 3.96z" fill="#df6257"/><path d="m70.522 419.487-14.4-6.974a81.646 81.646 0 0 1 27.363-31.768l9.03 13.209a65.626 65.626 0 0 0 -21.993 25.533z" fill="#df6257"/><path d="m256 64h-40v19a21 21 0 0 1 -32 17.89 20.611 20.611 0 0 1 -3.09-2.32 20.9 20.9 0 0 1 -6.8-13.48l-1.71-17.11a39.992 39.992 0 0 1 39.8-43.98h3.8a40 40 0 0 1 40 40z" fill="#d65246"/><path d="m184 240v16a24 24 0 0 0 24 24h80l-40 104h40l37.6-90.517a38.658 38.658 0 0 0 -2.388-34.441 38.655 38.655 0 0 0 -33.312-19.042z" fill="#7a432a"/><path d="m280 184-48-56h-48v112h64v-40l8.971 8.971a24 24 0 0 0 16.97 7.029h78.059v-32z" fill="#d65246"/><path d="m368 248h64v-56h-14.111a28.944 28.944 0 0 0 -25.889 16l-24 8z" fill="#d65246"/><path d="m488 432a55.967 55.967 0 1 1 -.57-8 56 56 0 0 1 .57 8z" fill="#34507b"/><path d="m487.43 424h-63.43l-31.68 47.52a56 56 0 1 1 95.11-47.52z" fill="#2f486e"/><path d="m455 432a24.025 24.025 0 1 1 -1.38-8 23.6 23.6 0 0 1 1.38 8z" fill="#cececc"/><path d="m453.62 424h-29.62l-13.57 20.35a23.994 23.994 0 1 1 43.19-20.35z" fill="#c6c6c4"/><path d="m396 419.151 24.5 24.5a14.849 14.849 0 0 0 21 0 14.849 14.849 0 0 0 0-21l-24.5-24.5z" fill="#d5d5d3"/><path d="m360 456h32l32-48h64a48 48 0 0 0 -48-48h-16a64 64 0 0 0 -64 64z" fill="#d65246"/><path d="m352 184v32l16 8v16h32v-40z" fill="#fdc8a2"/><circle cx="368" cy="232" fill="#34507b" r="16"/><g fill="#c7483c"><path d="m112 336h56v16h-56z"/><path d="m278.059 432h-150.059v-16h166.059a24 24 0 0 0 16.97-7.029l.971-.971-16.971 16.971a24 24 0 0 1 -16.97 7.029z"/><path d="m424 352a72.1 72.1 0 0 0 -70.98 60h16.289a56.088 56.088 0 0 1 54.691-44h16v-16z"/></g><rect fill="#34507b" height="32" rx="16" width="96" x="152" y="280"/><path d="m248 201.373-26.343-26.343-11.314 11.313 37.657 37.657z" fill="#c7483c"/><path d="m248 384h48a16 16 0 0 1 16 16 16 16 0 0 1 -16 16h-48a0 0 0 0 1 0 0v-32a0 0 0 0 1 0 0z" fill="#d5d5d3"/><path d="m98.147 372.8 6.138 14.777a65.794 65.794 0 0 1 13.45-3.962l-2.861-15.742a81.91 81.91 0 0 0 -16.727 4.927z"/><path d="m56.122 412.513 14.4 6.974a65.626 65.626 0 0 1 21.993-25.533l-9.03-13.209a81.646 81.646 0 0 0 -27.363 31.768z"/><path d="m496 408a55.9 55.9 0 0 0 -14.262-37.335l-11.922 10.67a39.906 39.906 0 0 1 9.384 18.665h-55.2a8 8 0 0 0 -6.656 3.562l-29.625 44.438h-19.719v-24a56.064 56.064 0 0 1 56-56h16a39.8 39.8 0 0 1 22.112 6.662l8.86-13.324a55.661 55.661 0 0 0 -22.972-8.766v-24.572a8 8 0 0 0 -8-8 32.036 32.036 0 0 1 -32-32v-32h24a8 8 0 0 0 8-8v-56a8 8 0 0 0 -8-8h-14.11a36.961 36.961 0 0 0 -9.89 1.363v-9.363a8 8 0 0 0 -1.753-5l-26.175-32.72a28 28 0 1 0 -11.789 10.876l23.717 29.65v10.094l-35.17-11.723a21.563 21.563 0 0 0 -7.163-1.177h-65.987l-37.98-44.311a23.985 23.985 0 0 0 10.3-19.689v-3.056l11.578-5.789a8 8 0 0 0 3.078-11.593l-13.14-19.71a8 8 0 0 0 6.484-7.852 48.055 48.055 0 0 0 -48-48c-15.065 0-29.015 4.327-39.39 15.792a48.089 48.089 0 0 0 -12.173 36.984l1.712 17.112a28.913 28.913 0 0 0 9.851 19.05v151.062a31.793 31.793 0 0 0 4.305 16h-12.305a23.885 23.885 0 0 0 -8 1.376v-105.376a24.027 24.027 0 0 0 -24-24h-96a24.027 24.027 0 0 0 -24 24v40h16v-16h112v80h-112v-48h-16v65.323a15.991 15.991 0 0 0 13.138 15.742l74.862 13.612v18.773a113.28 113.28 0 0 0 -19.786 6.55h-44.214a8 8 0 0 0 -8 8v37.972a113.628 113.628 0 0 0 -16 58.028 8 8 0 0 0 8 8h36.671a64 64 0 0 0 118.658 0h134.511a40.063 40.063 0 0 0 29.6-13.09l8.56-9.419v22.509a8 8 0 0 0 8 8h16.576a64 64 0 0 0 119.424-32 63.72 63.72 0 0 0 -2.606-18.1 7.97 7.97 0 0 0 2.606-5.9zm-152-284a12 12 0 1 1 12 12 12.013 12.013 0 0 1 -12-12zm-114.45 284a29.584 29.584 0 0 1 -29.55-29.551c0-7.854 1.986-15.2 7.22-21.243a29.634 29.634 0 0 1 18.147-9.9 35.674 35.674 0 0 0 30.633-35.306 7.975 7.975 0 0 0 -2.345-5.659 23.961 23.961 0 0 0 .969-18.341h21.728l-35.106 91.274a18.58 18.58 0 0 0 -1.246 6.893v21.833zm26.45-16h40a8 8 0 0 1 4.437 14.652 16.023 16.023 0 0 1 -6.377 1.348h-38.06zm62.082-1.4a24.071 24.071 0 0 0 -18.226-14.29l33.131-79.763a46.653 46.653 0 0 0 -43.087-64.547h-33.9v-12.686l2.343 2.343a8 8 0 0 0 5.657 2.343h81.376a23.992 23.992 0 0 0 22.624 32h.022a39.788 39.788 0 0 0 -8.022 24v62.06a16.108 16.108 0 0 1 -4.687 11.313zm49.918-150.6a8 8 0 1 1 8-8 8.009 8.009 0 0 1 -8 8zm56-40v40h-16v-37.509a21.035 21.035 0 0 1 9.89-2.491zm-32 32a23.992 23.992 0 0 0 -32-22.624v-14.276l32 10.666zm-112-40h64v16h-76.686l-45.657-45.657-11.314 11.314 29.657 29.656v28.687h-48v-96h36.32l45.606 53.207a8 8 0 0 0 6.074 2.793zm-91.527-149.472c7.313-8.081 17.018-10.528 27.527-10.528a32.058 32.058 0 0 1 30.988 24h-30.988a8 8 0 0 0 -8 8v19a13 13 0 0 1 -25.93 1.3l-1.712-17.112a31.631 31.631 0 0 1 8.115-24.66zm6.527 69.472a29.03 29.03 0 0 0 29-29v-11h16a7.993 7.993 0 0 0 1.344 4.438l10.973 16.462-7.9 3.948a8 8 0 0 0 -4.417 7.152v8a8.009 8.009 0 0 1 -8 8h-40v-8.157a29.5 29.5 0 0 0 3 .157zm-3 144v-8h97.9a30.655 30.655 0 0 1 28.309 42.414l-35.549 85.586h-23.012l35.819-93.128a8 8 0 0 0 -7.467-10.872h-80a16.019 16.019 0 0 1 -16-16zm-24 32h64a8 8 0 0 1 0 16h-64a8 8 0 0 1 0-16zm-136-112v-8a8.009 8.009 0 0 1 8-8h96a8.009 8.009 0 0 1 8 8v8zm0 112h112v16h-31.279l-80.721-14.677zm25.89 72a113.209 113.209 0 0 0 -9.89 9.052v-9.052zm62.11 120a48.355 48.355 0 0 1 -41.558-24h20.412a31.947 31.947 0 0 0 42.292 0h20.412a48.355 48.355 0 0 1 -41.558 24zm211.6-47.85a24.036 24.036 0 0 1 -17.76 7.85h-281.509a97.44 97.44 0 0 1 76.875-87.316 29.964 29.964 0 0 1 6.294-.684h52.5v-16h-48v-16h118.3a19.678 19.678 0 0 1 -15.2 11.472 45.657 45.657 0 0 0 -27.97 15.252c-7.741 8.914-11.13 20.066-11.13 31.726a45.338 45.338 0 0 0 10.928 29.55h-66.928v16h166.06a32.578 32.578 0 0 0 22.627-9.373l49.94-49.94a32.226 32.226 0 0 0 9.373-22.627v-62.06a24.042 24.042 0 0 1 16-22.629v30.629a48.078 48.078 0 0 0 40 47.333v16.667c-4.967 0-10.049-.3-14.987.345a72.15 72.15 0 0 0 -63.107 55.255zm96.681-16.15h.406l9.656 9.657a9.012 9.012 0 0 1 2.627 6.343 8.97 8.97 0 0 1 -15.313 6.343l-7.363-7.362zm3.719 64a48.268 48.268 0 0 1 -36.475-16.832 7.981 7.981 0 0 0 3.131-2.73l6.936-10.4a31.983 31.983 0 0 0 58.408-18.038 31.586 31.586 0 0 0 -3.089-13.7c-.373-.787-.784-1.549-1.217-2.3h17.571a48.025 48.025 0 0 1 -45.265 64z"/><path d="m48 208h16v48h-16z"/></g></svg>